<svg width="327" height="29" viewBox="0 0 327 29" fill="none" xmlns="http://www.w3.org/2000/svg">
<path d="M90.1995 0.351866V25.8745H111.491L127.194 0.493391C127.656 0.111273 130.619 0.48773 131.409 0.349035L138.723 12.1239C140.996 12.2598 143.286 12.274 145.513 12.7608L144.718 15.2885C143.308 15.0762 141.848 14.762 140.421 14.946L148.907 28.8353H145.584C145.284 28.6003 145.103 28.2833 144.888 27.9776C142.258 24.2074 140.104 19.8342 137.509 16.0159C137.33 15.7555 136.965 15.0309 136.685 15.0252C130.226 15.7668 123.942 17.8812 118.79 21.8722C118.055 22.4411 116.716 23.4998 116.155 24.1791C115.595 24.8584 113.568 28.6881 113.161 28.8098C111.859 28.9994 110.491 28.7107 109.235 28.6881C101.81 28.5579 94.3519 28.722 86.9473 28.8353V0.351866H90.1995ZM129.787 3.47675H129.054L120.189 17.8359L123.39 16.0244C127.135 14.2666 131.171 12.9844 135.323 12.6193L129.784 3.47675H129.787Z" fill="white"/>
<path d="M239.158 28.8346L242.9 0.342758L245.739 0.489945L259.693 24.0879L260.092 24.4643L273.747 0.492775L276.772 0.365402L280.393 28.8346H277.494L274.522 6.2755L274.123 6.51043L261.154 28.5516L258.844 28.6705L245.408 6.60101L245.031 6.27267L242.059 28.8346H239.158Z" fill="white"/>
<path d="M206.761 0.351601V3.17079H183.491L183.279 3.38307V11.3509H206.761V14.1701H183.491L183.279 14.3824V25.8743H206.761V28.835H180.239L180.027 28.6255V0.351601H206.761Z" fill="white"/>
<path d="M313 0.351601V3.17079H289.518V11.3509H313V14.1701H289.518V25.8743H313V28.835H286.266V0.351601H313Z" fill="white"/>
<path d="M35.737 0.351601V3.17079H12.2523V11.3509H35.737V14.1701H12.2523V25.8743H35.737V28.6255L35.5247 28.835H9V0.351601H35.737Z" fill="white"/>
<path d="M44.3636 18.8221V28.6213L44.1513 28.8336H41.2501V3.03065C46.628 -0.275378 54.4657 -0.649005 60.5173 0.817198C65.3858 1.99752 70.4864 5.16203 69.9656 10.8542C69.4447 16.5463 61.5448 19.5212 56.464 19.8156C52.5438 20.042 48.1452 19.8325 44.3636 18.8221ZM44.3778 15.7057C45.7421 16.0623 47.129 16.4105 48.5386 16.5633C53.3448 17.0898 63.7866 17.1436 66.4076 12.0996C68.8928 7.31321 62.9233 4.47704 59.2181 3.66186C54.6016 2.6457 48.7084 2.9231 44.358 4.8167L44.3778 15.7057Z" fill="white"/>
<path d="M175.075 0.351601V3.17079H161.355V28.6255L161.143 28.835H158.171L157.959 28.6255V3.17079H144.236V0.351601H175.075Z" fill="white"/>
<path d="M78.458 0.351601V28.6255L78.2457 28.835H75.2029V0.351601H78.458Z" fill="white"/>
<path d="M229.255 13.0424V15.8616H220.695L220.483 15.6493V13.0424H229.255Z" fill="white"/>
</svg>
