<svg width="20" height="19" viewBox="0 0 20 19" fill="none" xmlns="http://www.w3.org/2000/svg">
<path d="M16.9728 0H2.16778C1.00945 0 0.0703125 0.939143 0.0703125 2.09746V16.9025C0.0703125 18.0609 1.00945 19 2.16778 19H16.9728C18.1312 19 19.0703 18.0609 19.0703 16.9025V2.09746C19.0703 0.939143 18.1312 0 16.9728 0ZM14.5008 6.04505C14.4428 7.12229 14.169 8.46212 13.9987 9.55055C13.865 10.4052 13.5535 13.035 13.1145 13.6244C12.8149 14.0271 12.2822 13.773 11.927 13.5775C10.9071 13.0164 9.91469 12.1173 8.88529 11.5374C8.6254 11.3294 8.53244 10.9406 8.7584 10.6729L11.9005 7.57625C12.0081 7.42798 11.8863 7.27938 11.716 7.30516C10.349 8.15439 9.04374 9.20855 7.66454 10.0334C6.98937 10.4371 6.68536 10.5009 5.8989 10.3099C5.60677 10.239 4.34226 9.87423 4.17465 9.7202C3.9039 9.4715 4.15056 9.17429 4.40808 9.04875C7.18378 7.89552 9.9191 6.58825 12.7263 5.50932C13.0544 5.38311 13.4395 5.20193 13.79 5.16834C14.4615 5.10388 14.5317 5.48184 14.5012 6.04471L14.5008 6.04505Z" fill="white"/>
</svg>
