<svg width="19" height="19" viewBox="0 0 19 19" fill="none" xmlns="http://www.w3.org/2000/svg">
<path d="M16.9025 0H2.09746C0.939143 0 0 0.939143 0 2.09746V16.9025C0 18.0609 0.939143 19 2.09746 19H16.9025C18.0609 19 19 18.0609 19 16.9025V2.09746C19 0.939143 18.0609 0 16.9025 0ZM13.2308 13.6664C12.8515 12.2743 11.6531 11.0892 10.1772 10.9521V13.6664C7.8375 13.7811 5.64877 12.8097 4.4158 10.793C3.55096 9.3782 3.25239 7.70823 3.18793 6.06643H5.2915C5.31525 7.23696 5.51068 8.47604 6.06609 9.51595C6.49936 10.3275 7.24816 11.1255 8.17543 11.3254V6.06643H10.1772V9.05214C11.6453 8.82584 12.5631 7.36725 13.0103 6.06643H14.9611C14.6887 7.62579 13.6841 8.98462 12.3833 9.84946C13.8537 10.64 15.0066 12.0311 15.4022 13.6664H13.2308Z" fill="white"/>
</svg>
