<svg width="19" height="19" viewBox="0 0 19 19" fill="none" xmlns="http://www.w3.org/2000/svg">
<path d="M8.19009 4.97863C5.16061 5.86756 3.88863 9.49655 5.67158 12.1057L5.20947 13.8201L6.95849 13.378C9.4329 14.9455 12.8152 13.9052 13.867 11.1543C15.2578 7.51648 11.9321 3.88036 8.19043 4.97829L8.19009 4.97863ZM12.3331 11.2364C12.1472 12.0765 11.1704 12.2546 10.4446 12.0656C9.10481 11.7168 8.01265 10.7777 7.24145 9.65873C6.79868 9.01613 6.45465 8.26088 6.81938 7.48527C6.91235 7.28747 7.21329 6.90305 7.43383 6.86607C7.53731 6.84877 7.79279 6.8447 7.89492 6.86098C8.02113 6.881 8.06999 7.00043 8.12258 7.10323C8.23522 7.32445 8.51208 7.95552 8.57349 8.17979C8.67086 8.53604 8.11477 8.83597 8.11545 9.04734C8.11579 9.18102 8.52124 9.70216 8.63083 9.826C8.91718 10.1497 9.3172 10.4666 9.70263 10.6634C9.86447 10.7458 10.1922 10.9338 10.348 10.8079C10.5047 10.681 10.6598 10.3848 10.8043 10.2362C10.977 10.0584 11.0744 10.1463 11.28 10.2318C11.5134 10.3285 12.0834 10.5772 12.269 10.7112C12.4376 10.833 12.3725 11.059 12.3331 11.2364Z" fill="white"/>
<path d="M16.9025 0H2.09746C0.939141 0 0 0.939143 0 2.09746V16.9025C0 18.0609 0.939141 19 2.09746 19H16.9025C18.0609 19 19 18.0609 19 16.9025V2.09746C19 0.939143 18.0609 0 16.9025 0ZM15.1396 9.82572L14.9835 10.771C14.1387 14.3511 10.052 16.1357 6.81795 14.3864L3.88991 15.1715H3.86039L4.64991 12.2771C3.11023 9.53257 4.05412 6.05286 6.80743 4.53354C10.3889 2.5572 14.8034 4.95968 15.1091 8.99107L15.1396 9.06198V9.82572Z" fill="white"/>
</svg>
